<?xml version="1.0" encoding="utf-8"?>
<!-- Generator: Adobe Illustrator 24.3.0, SVG Export Plug-In . SVG Version: 6.00 Build 0)  -->
<svg version="1.1" id="Layer_1" xmlns="http://www.w3.org/2000/svg" xmlns:xlink="http://www.w3.org/1999/xlink" x="0px" y="0px"
	 viewBox="0 0 951.5 963.1" style="enable-background:new 0 0 951.5 963.1;" xml:space="preserve">
<style type="text/css">
	.st0{fill:none;stroke:#3DA0D4;stroke-width:2;stroke-miterlimit:10;}
	.st1{fill:#3DA0D4;stroke:#FFFFFF;stroke-width:2;stroke-miterlimit:10;}
	.st2{fill:#FFFFFF;}
	.st3{font-family:'Arial-BoldMT';}
	.st4{font-size:32px;}
	.st5{fill:#666666;}
	.st6{font-family:'ArialMT';}
	.st7{font-size:30px;}
	.st8{letter-spacing:-1;}
	.st9{fill:#E6E6E6;stroke:#808080;stroke-width:2;stroke-miterlimit:10;}
	.st10{fill:none;stroke:#999999;stroke-width:2;stroke-miterlimit:10;stroke-dasharray:6;}
	.st11{fill:#FFFFFF;stroke:#999999;stroke-width:2;stroke-miterlimit:10;}
	.st12{fill:none;stroke:#666666;stroke-width:2;stroke-miterlimit:10;}
	.st13{fill:#FFFFFF;stroke:#666666;stroke-width:2;stroke-miterlimit:10;}
	.st14{fill:#FFFFFF;stroke:#808080;stroke-width:2;stroke-miterlimit:10;}
	.st15{fill:#3DA0D4;}
	.st16{fill:#77BCE1;}
	.st17{fill:#9ECFE9;}
	.st18{fill:#D8ECF6;}
	.st19{fill:#50A9D8;}
	.st20{fill:#F9A5AD;stroke:#777777;stroke-width:2;stroke-miterlimit:10;}
	.st21{fill:#FFFFFF;stroke:#666666;stroke-width:2.348;stroke-miterlimit:10;}
	.st22{fill:#CCCCCC;stroke:#808080;stroke-width:2;stroke-miterlimit:10;}
	.st23{fill:#E6E6E6;}
	.st24{fill:none;stroke:#40D358;stroke-width:2;stroke-miterlimit:10;}
	.st25{enable-background:new    ;}
</style>
<path class="st0" d="M130.2,881.2h228c5.5,0,10,4.5,10,10v60.9c0,5.5-4.5,10-10,10h-228c-5.5,0-10-4.5-10-10v-60.9
	C120.2,885.7,124.7,881.2,130.2,881.2z"/>
<circle class="st1" cx="120.2" cy="881.2" r="22.8"/>
<text transform="matrix(1 0 0 1 110.38 893.1)" class="st2 st3 st4">4</text>
<text transform="matrix(1 0 0 1 143.2 933.12)" class="st5 st6 st7">K</text>
<text transform="matrix(1 0 0 1 161.63 933.12)" class="st5 st6 st7">eep exploring!</text>
<path class="st0" d="M601.3,816.1h228c5.5,0,10,4.5,10,10v126c0,5.5-4.5,10-10,10h-228c-5.5,0-10-4.5-10-10v-126
	C591.3,820.5,595.8,816.1,601.3,816.1z"/>
<circle class="st1" cx="591.2" cy="816.1" r="22.8"/>
<text transform="matrix(1 0 0 1 618.14 866.29)" class="st5 st6 st7">W</text>
<text transform="matrix(1 0 0 1 644.3 866.29)" class="st5 st6 st7 st8">e</text>
<text transform="matrix(1 0 0 1 659.02 866.29)" class="st5 st6 st7">’</text>
<text transform="matrix(1 0 0 1 665.48 866.29)" class="st5 st6 st7">ll find </text>
<text transform="matrix(1 0 0 1 618.14 902.29)" class="st5 st6 st7">matches </text>
<text transform="matrix(1 0 0 1 741.57 902.29)" class="st5 st6 st7">t</text>
<text transform="matrix(1 0 0 1 751.07 902.29)" class="st5 st6 st7">o </text>
<text transform="matrix(1 0 0 1 618.14 939.9908)" class="st5 st6 st7">similar features</text>
<ellipse class="st9" cx="278.8" cy="779.3" rx="142.9" ry="61.6"/>
<path class="st10" d="M116.1,172.5v102.4c0,27.6,22.4,50,50,50l0,0h750.6c18.7,0,33.8,15.1,33.8,33.8l0,0l0,0
	c0,14.5-1,288.9-1.4,358c-0.1,18.1-14.9,32.8-33,32.8H639.3"/>
<path class="st10" d="M176.5,670v-78.4H631c24.8,0,44.9,20.1,44.9,44.9c0,0,0,0,0,0.1l-0.1,58.5"/>
<line class="st10" x1="233.9" y1="591.6" x2="233.9" y2="715.1"/>
<line class="st10" x1="277.9" y1="631.8" x2="277.9" y2="591.6"/>
<line class="st10" x1="367.8" y1="666" x2="367.8" y2="591.6"/>
<circle class="st11" cx="367.8" cy="591.6" r="9.5"/>
<circle class="st11" cx="277.9" cy="591.6" r="9.5"/>
<circle class="st11" cx="234.9" cy="591.6" r="9.5"/>
<circle class="st11" cx="176.5" cy="591.6" r="9.5"/>
<line class="st12" x1="82" y1="182.8" x2="93.4" y2="202.4"/>
<path class="st13" d="M85,239.2l8.1-13.4l6.7,4l-7,11.7l-4.4,7.3c0,0-3.2,0.1-7.6-2.5s-5.8-5.5-5.8-5.5
	C78.5,234.8,85,239.2,85,239.2z"/>
<path class="st13" d="M91.5,243.4c-4.2-0.6-8-2.9-10.5-6.4l6.1-10.2l10.5,6.4L91.5,243.4z"/>
<path class="st13" d="M102.1,249.5l8.1-13.4l-6.7-4l-7,11.7l-4.4,7.3c0,0,1.4,2.9,5.8,5.5s7.6,2.5,7.6,2.5
	C109,253.2,102.1,249.5,102.1,249.5z"/>
<path class="st13" d="M95.3,245.7c2.5,3.5,6.3,5.7,10.5,6.3l6.1-10.2l-10.5-6.4L95.3,245.7z"/>
<path class="st13" d="M88.4,208.2c6.6-11,20.9-14.5,31.8-7.8c11,6.6,14.5,20.9,7.8,31.8l-8,13.3c0,0-10.7,0.3-22.8-7
	s-16.8-16.9-16.8-16.9L88.4,208.2z"/>
<circle class="st13" cx="134.2" cy="177.3" r="40"/>
<circle class="st13" cx="82" cy="182.8" r="7.4"/>
<line class="st12" x1="153.5" y1="225.9" x2="130.9" y2="225.1"/>
<circle class="st13" cx="153.5" cy="226" r="7.4"/>
<line class="st12" x1="317.4" y1="309.7" x2="337.3" y2="320.6"/>
<path class="st13" d="M349.1,356.4v-15.6h7.8V363c0,0-2.6,1.8-7.8,1.8s-7.8-1.8-7.8-1.8C341.3,356,349.1,356.4,349.1,356.4z"/>
<path class="st13" d="M356.9,356.7c-3.9,1.7-8.4,1.7-12.3,0v-11.9h12.3V356.7z"/>
<path class="st13" d="M369.1,356.4v-15.6h-7.8V363c0,0,2.6,1.8,7.8,1.8s7.8-1.8,7.8-1.8C376.9,356,369.1,356.4,369.1,356.4z"/>
<path class="st13" d="M361.4,356.7c3.9,1.7,8.4,1.7,12.3,0v-11.9h-12.3V356.7z"/>
<path class="st13" d="M336,328.2c0.3-12.8,10.9-23,23.7-22.7c12.4,0.3,22.4,10.3,22.7,22.7v15.5c0,0-9,5.8-23.2,5.8
	s-23.2-5.8-23.2-5.8V328.2z"/>
<circle class="st13" cx="359.2" cy="278" r="40"/>
<circle class="st13" cx="317.4" cy="309.7" r="7.4"/>
<line class="st12" x1="400.9" y1="309.7" x2="381.1" y2="320.6"/>
<circle class="st13" cx="400.9" cy="309.7" r="7.4"/>
<path class="st9" d="M840.4,365.8h-820C9.7,365.8,1,373.9,1,383.9S9.7,402,20.4,402h820c10.7,0,19.4-8.1,19.4-18.1
	S851.1,365.8,840.4,365.8z"/>
<circle class="st14" cx="55.3" cy="383.9" r="13.5"/>
<circle class="st14" cx="134.1" cy="383.9" r="13.5"/>
<circle class="st14" cx="213" cy="383.9" r="13.5"/>
<circle class="st14" cx="644.1" cy="383.9" r="13.5"/>
<circle class="st14" cx="723" cy="383.9" r="13.5"/>
<circle class="st14" cx="801.9" cy="383.9" r="13.5"/>
<circle class="st14" cx="291.9" cy="383.9" r="13.5"/>
<circle class="st14" cx="370.8" cy="383.9" r="13.5"/>
<circle class="st13" cx="399.2" cy="383.9" r="18.1"/>
<path class="st13" d="M47,111l-6.7,9.9c-1.8,2.7-2.7,5.8-2.7,9v22.9c0,2.8,2,5.3,4.7,5.8c2.8,0.4,5.5-1.3,6.2-4c0,0-0.2,1.7-0.2,2.6
	c0,3.1,2.5,5.6,5.6,5.6c2.9,0,5.4-2,6-4.9c0,0,0.1,2.2,0.1,3.4c0,3.1,2.5,5.6,5.6,5.6c3.1,0,5.6-2.5,5.6-5.6v15.1
	c-0.1,3.1,2.3,5.7,5.3,5.9c3.1,0.2,5.7-2.2,5.9-5.3c0-0.1,0-0.2,0-0.3v-33.7c0,0,5.3,5,5.6,5.2c2.2,2.2,5.8,2.2,7.9,0s2.2-5.8,0-7.9
	C81,124.8,76.9,111,76.9,111"/>
<line class="st12" x1="71.3" y1="161.2" x2="71.3" y2="146"/>
<line class="st12" x1="60" y1="157.8" x2="60" y2="148.5"/>
<line class="st12" x1="48.6" y1="154.5" x2="48.6" y2="148.5"/>
<path class="st13" d="M75.4,100.4H47.4c-3.2,0-5.7,2.6-5.7,5.7s2.6,5.7,5.7,5.7l0,0h28.1c3.2,0,5.7-2.6,5.7-5.7
	S78.6,100.4,75.4,100.4z"/>
<path class="st13" d="M783.9,356.4v-15.6h7.8V363c0,0-2.7,1.8-7.8,1.8s-7.8-1.8-7.8-1.8C776.1,356,783.9,356.4,783.9,356.4z"/>
<path class="st13" d="M791.7,356.7c-3.9,1.7-8.4,1.7-12.3,0v-11.9h12.3V356.7z"/>
<path class="st13" d="M803.9,356.4v-15.6h-7.8V363c0,0,2.7,1.8,7.8,1.8s7.8-1.8,7.8-1.8C811.7,356,803.9,356.4,803.9,356.4z"/>
<path class="st13" d="M796.1,356.7c3.9,1.7,8.4,1.7,12.3,0v-11.9h-12.3V356.7z"/>
<path class="st13" d="M770.8,328.2c0.3-12.8,10.9-23,23.7-22.7c12.4,0.3,22.4,10.3,22.7,22.7v15.5c0,0-9,5.8-23.2,5.8
	s-23.2-5.8-23.2-5.8L770.8,328.2z"/>
<circle class="st13" cx="793.9" cy="278" r="40"/>
<rect x="752.5" y="308.5" class="st13" width="82.9" height="22.5"/>
<circle class="st13" cx="835.4" cy="319.8" r="7.3"/>
<circle class="st13" cx="752.5" cy="319.8" r="7.3"/>
<rect x="763.5" y="312.5" class="st15" width="6.1" height="14.5"/>
<rect x="769.6" y="312.5" class="st16" width="6.1" height="14.5"/>
<rect x="775.7" y="312.5" class="st17" width="6.1" height="14.5"/>
<rect x="781.8" y="312.5" class="st17" width="6.1" height="14.5"/>
<rect x="787.8" y="312.5" class="st15" width="6.1" height="14.5"/>
<rect x="793.9" y="312.5" class="st17" width="6.1" height="14.5"/>
<rect x="800" y="312.5" class="st18" width="6.1" height="14.5"/>
<rect x="806.1" y="312.5" class="st15" width="6.1" height="14.5"/>
<rect x="812.2" y="312.5" class="st19" width="6.1" height="14.5"/>
<rect x="818.3" y="312.5" class="st19" width="6.1" height="14.5"/>
<rect x="388.8" y="205.1" class="st9" width="285.6" height="214.9"/>
<path class="st13" d="M665.8,786.1v-15.6h7.8v22.1c0,0-2.7,1.8-7.8,1.8s-7.8-1.8-7.8-1.8C658,785.7,665.8,786.1,665.8,786.1z"/>
<path class="st13" d="M673.5,786.4c-3.9,1.7-8.4,1.7-12.3,0v-11.9h12.3V786.4z"/>
<path class="st13" d="M685.8,786.1v-15.6H678v22.1c0,0,2.7,1.8,7.8,1.8s7.8-1.8,7.8-1.8C693.6,785.7,685.8,786.1,685.8,786.1z"/>
<path class="st13" d="M678,786.4c3.9,1.7,8.4,1.7,12.3,0v-11.9H678V786.4z"/>
<path class="st13" d="M652.6,757.9c0.3-12.8,10.9-23,23.7-22.7c12.4,0.3,22.4,10.3,22.7,22.7v15.5c0,0-9,5.8-23.2,5.8
	s-23.2-5.8-23.2-5.8L652.6,757.9z"/>
<circle class="st13" cx="675.8" cy="707.7" r="40"/>
<rect x="639.3" y="738.2" class="st13" width="82.9" height="22.5"/>
<circle class="st13" cx="722.3" cy="749.4" r="7.3"/>
<circle class="st13" cx="639.3" cy="749.4" r="7.3"/>
<rect x="650.4" y="742.2" class="st15" width="6.1" height="14.5"/>
<rect x="656.5" y="742.2" class="st16" width="6.1" height="14.5"/>
<rect x="662.6" y="742.2" class="st17" width="6.1" height="14.5"/>
<rect x="668.7" y="742.2" class="st17" width="6.1" height="14.5"/>
<rect x="674.7" y="742.2" class="st15" width="6.1" height="14.5"/>
<rect x="680.8" y="742.2" class="st17" width="6.1" height="14.5"/>
<rect x="686.9" y="742.2" class="st18" width="6.1" height="14.5"/>
<rect x="693" y="742.2" class="st15" width="6.1" height="14.5"/>
<rect x="699.1" y="742.2" class="st19" width="6.1" height="14.5"/>
<rect x="705.2" y="742.2" class="st19" width="6.1" height="14.5"/>
<path class="st12" d="M668.8,722.6c0,5,4,9,9,9s9-4,9-9H668.8z"/>
<path class="st13" d="M789.6,786.1v-15.6h7.8v22.1c0,0-2.7,1.8-7.8,1.8s-7.8-1.8-7.8-1.8C781.8,785.7,789.6,786.1,789.6,786.1z"/>
<path class="st13" d="M797.4,786.4c-3.9,1.7-8.4,1.7-12.3,0v-11.9h12.3V786.4z"/>
<path class="st13" d="M809.7,786.1v-15.6h-7.8v22.1c0,0,2.7,1.8,7.8,1.8s7.8-1.8,7.8-1.8C817.4,785.7,809.7,786.1,809.7,786.1z"/>
<path class="st13" d="M801.9,786.4c3.9,1.7,8.4,1.7,12.3,0v-11.9h-12.3V786.4z"/>
<path class="st13" d="M776.5,757.9c0.3-12.8,10.9-23,23.7-22.7c12.4,0.3,22.4,10.3,22.7,22.7v15.5c0,0-9,5.8-23.2,5.8
	s-23.2-5.8-23.2-5.8L776.5,757.9z"/>
<circle class="st13" cx="799.7" cy="707.7" r="40"/>
<rect x="753.2" y="738.2" class="st13" width="82.9" height="22.5"/>
<circle class="st13" cx="836.2" cy="749.4" r="7.3"/>
<circle class="st13" cx="753.2" cy="749.4" r="7.3"/>
<rect x="763.9" y="742.2" class="st15" width="6.1" height="14.5"/>
<rect x="770" y="742.2" class="st16" width="6.1" height="14.5"/>
<rect x="776.1" y="742.2" class="st17" width="6.1" height="14.5"/>
<rect x="782.2" y="742.2" class="st17" width="6.1" height="14.5"/>
<rect x="788.3" y="742.2" class="st15" width="6.1" height="14.5"/>
<rect x="794.4" y="742.2" class="st17" width="6.1" height="14.5"/>
<rect x="800.5" y="742.2" class="st18" width="6.1" height="14.5"/>
<rect x="806.5" y="742.2" class="st15" width="6.1" height="14.5"/>
<rect x="812.6" y="742.2" class="st19" width="6.1" height="14.5"/>
<rect x="818.7" y="742.2" class="st19" width="6.1" height="14.5"/>
<path class="st20" d="M739.3,654.2c0-4.6-3.7-8.3-8.3-8.3h0c-4.5-0.1-8.2,3.4-8.3,7.9c0,0.2,0,0.3,0,0.5c0,9.2,16.7,19.3,16.7,19.3
	s16.7-10.2,16.7-19.3c0.1-4.5-3.4-8.2-7.9-8.3c-0.2,0-0.3,0-0.5,0C743.1,645.9,739.3,649.6,739.3,654.2
	C739.3,654.2,739.3,654.2,739.3,654.2z"/>
<path class="st12" d="M788.7,722.6c0,5,4,9,9,9s9-4,9-9H788.7z"/>
<rect x="492.4" y="252" class="st21" width="155" height="143.9"/>
<rect x="408.3" y="172.5" class="st22" width="123.3" height="32.6"/>
<path class="st22" d="M442.4,340.8L442.4,340.8c-7.7,0-14-6.3-14-14V136.4l28,16.8v173.7C456.4,334.6,450.1,340.8,442.4,340.8z"/>
<path class="st22" d="M505.2,75L505.2,75c2.9-3.3,8-3.7,11.3-0.7c1.9,1.6,2.9,4.1,2.7,6.5l0,0c4.4-0.3,8.2,3.1,8.5,7.5
	c0.2,2.5-0.8,4.9-2.7,6.5l0,0c3.3,2.9,3.7,8,0.7,11.3c-1.6,1.9-4.1,2.9-6.5,2.7l0,0c0.3,4.4-3.1,8.2-7.5,8.5
	c-2.5,0.2-4.9-0.8-6.5-2.7l0,0c-2.9,3.3-8,3.7-11.3,0.7c-1.9-1.6-2.9-4.1-2.7-6.5l0,0c-4.4,0.3-8.2-3.1-8.5-7.5
	c-0.2-2.5,0.8-4.9,2.7-6.5l0,0c-3.3-2.9-3.7-8-0.7-11.3c1.6-1.9,4.1-2.9,6.5-2.7l0,0c-0.3-4.4,3.1-8.2,7.5-8.5
	C501.2,72.1,503.6,73.1,505.2,75z"/>
<path class="st22" d="M458.4,113.4L458.4,113.4c1.3-1.4,3.5-1.5,4.9-0.2c0.7,0.7,1.1,1.7,1.1,2.7l0,0c1.9-0.1,3.5,1.4,3.6,3.3
	c0,1-0.4,2-1.1,2.7l0,0c1.4,1.3,1.5,3.5,0.2,4.9c-0.7,0.7-1.7,1.1-2.7,1.1l0,0c0.1,1.9-1.4,3.5-3.3,3.6c-1,0-2-0.4-2.7-1.1l0,0
	c-1.3,1.4-3.5,1.5-4.9,0.2c-0.7-0.7-1.1-1.7-1.1-2.7l0,0c-1.9,0.1-3.5-1.4-3.6-3.3c0-1,0.4-2,1.1-2.7l0,0c-1.4-1.3-1.5-3.5-0.2-4.9
	c0.7-0.7,1.7-1.1,2.7-1.1l0,0c-0.1-1.9,1.4-3.5,3.3-3.6C456.7,112.2,457.7,112.6,458.4,113.4z"/>
<rect x="403.9" y="420" class="st22" width="36.5" height="16.4"/>
<rect x="620.9" y="420" class="st22" width="36.5" height="16.4"/>
<path class="st13" d="M286.4,732.3v-13.3h-6.6v18.8c4.2,2,9,2,13.2,0C293,732,286.4,732.3,286.4,732.3z"/>
<path class="st13" d="M279.8,732.5c3.3,1.4,7.1,1.4,10.4,0v-10.1h-10.4V732.5z"/>
<path class="st13" d="M269.4,732.3v-13.3h6.6v18.8c-4.2,2-9,2-13.2,0C262.8,732,269.4,732.3,269.4,732.3z"/>
<path class="st13" d="M276,732.5c-3.3,1.4-7.1,1.4-10.4,0v-10.1H276V732.5z"/>
<path class="st13" d="M297.5,708.4c0-10.9-8.8-19.7-19.7-19.7c-10.9,0-19.7,8.8-19.7,19.7v13.2c0,0,7.6,4.9,19.7,4.9
	s19.7-4.9,19.7-4.9L297.5,708.4z"/>
<circle class="st13" cx="277.9" cy="665.8" r="34"/>
<rect x="242.7" y="691.6" class="st13" width="70.4" height="19.1"/>
<circle class="st13" cx="242.7" cy="701.2" r="6.2"/>
<circle class="st13" cx="313.1" cy="701.2" r="6.2"/>
<rect x="252" y="697.1" class="st23" width="51.7" height="8.2"/>
<path class="st13" d="M376.3,766.6v-13.3h-6.6v18.8c4.2,2,9,2,13.2,0C382.9,766.2,376.3,766.6,376.3,766.6z"/>
<path class="st13" d="M369.7,766.8c3.3,1.4,7.1,1.4,10.4,0v-10.1h-10.4V766.8z"/>
<path class="st13" d="M359.3,766.6v-13.3h6.6v18.8c-4.2,2-9,2-13.2,0C352.7,766.2,359.3,766.6,359.3,766.6z"/>
<path class="st13" d="M365.9,766.8c-3.3,1.4-7.1,1.4-10.4,0v-10.1h10.4V766.8z"/>
<path class="st13" d="M387.4,742.6c0-10.9-8.8-19.7-19.7-19.7c-10.9,0-19.7,8.8-19.7,19.7v13.2c0,0,7.6,4.9,19.7,4.9
	s19.7-4.9,19.7-4.9L387.4,742.6z"/>
<circle class="st13" cx="367.8" cy="700" r="34"/>
<rect x="332.6" y="725.9" class="st13" width="70.4" height="19.1"/>
<circle class="st13" cx="332.6" cy="735.4" r="6.2"/>
<circle class="st13" cx="403" cy="735.4" r="6.2"/>
<rect x="341.9" y="731.1" class="st23" width="51.7" height="8.7"/>
<path class="st13" d="M185.1,773.2V760h-6.6v18.8c4.2,2,9,2,13.2,0C191.7,772.9,185.1,773.2,185.1,773.2z"/>
<path class="st13" d="M178.4,773.4c3.3,1.4,7.1,1.4,10.4,0v-10.1h-10.4V773.4z"/>
<path class="st13" d="M168,773.2V760h6.6v18.8c-4.2,2-9,2-13.2,0C161.4,772.9,168,773.2,168,773.2z"/>
<path class="st13" d="M174.6,773.4c-3.3,1.4-7.1,1.4-10.4,0v-10.1h10.4V773.4z"/>
<path class="st13" d="M196.2,749.2c0-10.9-8.8-19.7-19.7-19.7s-19.7,8.8-19.7,19.7v13.2c0,0,7.6,4.9,19.7,4.9s19.7-4.9,19.7-4.9
	L196.2,749.2z"/>
<circle class="st13" cx="176.5" cy="706.7" r="34"/>
<rect x="141.3" y="732.5" class="st13" width="70.4" height="19.1"/>
<circle class="st13" cx="141.3" cy="742.1" r="6.2"/>
<circle class="st13" cx="211.7" cy="742.1" r="6.2"/>
<rect x="150.7" y="738.4" class="st23" width="51.7" height="7.4"/>
<path class="st13" d="M244.3,815.6v-13.3h-6.6v18.8c4.2,2,9,2,13.2,0C250.9,815.2,244.3,815.6,244.3,815.6z"/>
<path class="st13" d="M237.7,815.8c3.3,1.4,7.1,1.4,10.4,0v-10.1h-10.4V815.8z"/>
<path class="st13" d="M227.3,815.6v-13.3h6.6v18.8c-4.2,2-9,2-13.2,0C220.7,815.2,227.3,815.6,227.3,815.6z"/>
<path class="st13" d="M233.9,815.8c-3.3,1.4-7.1,1.4-10.4,0v-10.1h10.4V815.8z"/>
<path class="st13" d="M255.4,791.6c0-10.9-8.8-19.7-19.7-19.7c-10.9,0-19.7,8.8-19.7,19.7v13.2c0,0,7.6,4.9,19.7,4.9
	s19.7-4.9,19.7-4.9L255.4,791.6z"/>
<circle class="st13" cx="235.8" cy="749" r="34"/>
<g>
	<polyline class="st24" points="331.5,278.3 343.9,278.3 346.2,264.6 349.3,291.5 352.8,273.3 354.8,281 357.8,264.5 360.3,291.5 
		362.8,274 365.3,291 368.8,266 371.4,281.9 373.4,275.1 375.8,282.8 377.8,277.8 388.8,277.8 	"/>
	<polyline class="st24" points="109.5,162.7 120.1,169.1 129.1,158.6 117.9,183.2 130.3,169.4 128,177 139.1,164.5 127.3,188.9 
		138.5,175.2 131.8,191 147.7,171.4 141.8,186.3 147,181.6 145,189.3 149.4,186.1 158.8,191.8 	"/>
	<polyline class="st24" points="766.3,278.3 778.7,278.3 780.9,264.6 784.1,291.5 787.6,273.3 789.6,281 792.6,264.5 795.1,291.5 
		797.6,274 800.1,291 803.6,266 806.2,281.9 808.2,275.1 810.5,282.8 812.6,277.8 823.6,277.8 	"/>
	<polyline class="st24" points="648.2,699 660.6,699 662.8,685.3 666,712.2 669.5,694 671.5,701.7 674.5,685.2 677,712.2 
		679.5,694.7 682,711.7 685.5,686.7 688,702.5 690.1,695.8 692.4,703.4 694.5,698.5 705.5,698.5 	"/>
	<polyline class="st24" points="772.1,699 784.5,699 786.7,685.3 789.8,712.2 793.3,694 795.3,701.7 798.3,685.2 800.8,712.2 
		803.3,694.7 805.8,711.7 809.3,686.7 811.9,702.5 814,695.8 816.3,703.4 818.3,698.5 829.3,698.5 	"/>
	<polyline class="st24" points="301.3,666 290.8,666 288.9,654.4 286.3,677.2 283.3,661.7 281.6,668.3 279,654.3 276.9,677.2 
		274.8,662.4 272.7,676.8 269.7,655.6 267.5,669 265.8,663.3 263.8,669.8 262.1,665.5 252.7,665.5 	"/>
	<polyline class="st24" points="391.2,700.2 380.7,700.2 378.8,688.7 376.1,711.5 373.2,696 371.5,702.5 368.9,688.5 366.8,711.5 
		364.7,696.6 362.6,711 359.6,689.8 357.4,703.3 355.7,697.6 353.7,704 352,699.8 342.6,699.8 	"/>
	<polyline class="st24" points="200,706.9 189.4,706.9 187.5,695.3 184.9,718.1 181.9,702.6 180.2,709.2 177.7,695.2 175.6,718.1 
		173.4,703.2 171.3,717.7 168.3,696.5 166.1,709.9 164.4,704.2 162.4,710.7 160.7,706.4 151.4,706.4 	"/>
	<polyline class="st24" points="259.2,749.2 248.7,749.2 246.8,737.7 244.1,760.5 241.2,745 239.5,751.6 236.9,737.6 234.8,760.5 
		232.7,745.6 230.6,760.1 227.6,738.8 225.4,752.3 223.7,746.6 221.7,753 219.9,748.8 210.6,748.8 	"/>
</g>
<rect x="200.6" y="774.9" class="st13" width="70.4" height="19.1"/>
<circle class="st13" cx="200.6" cy="784.5" r="6.2"/>
<circle class="st13" cx="271" cy="784.5" r="6.2"/>
<rect x="209.9" y="780.8" class="st23" width="51.7" height="7.4"/>
<g>
	<g class="st25">
		<path class="st5" d="M509.5,286.2c0-9,5.3-14.4,12.3-14.4c3.4,0,6,1.6,7.6,3.4l-1.9,2.3c-1.5-1.6-3.3-2.6-5.6-2.6
			c-5.3,0-8.7,4.3-8.7,11.2c0,7,3.3,11.4,8.6,11.4c2.7,0,4.7-1.2,6.4-3.1l1.9,2.2c-2.2,2.5-4.9,4-8.5,4
			C514.7,300.6,509.5,295.2,509.5,286.2z"/>
		<path class="st5" d="M535.8,286.1c0-8.9,4.9-14.3,11.9-14.3s11.9,5.4,11.9,14.3c0,8.9-4.9,14.5-11.9,14.5S535.8,295,535.8,286.1z
			 M555.9,286.1c0-6.9-3.3-11.2-8.2-11.2s-8.2,4.3-8.2,11.2c0,6.9,3.3,11.4,8.2,11.4S555.9,293,555.9,286.1z"/>
		<path class="st5" d="M567.6,272.3h4.3l5.3,14.8c0.7,1.9,1.3,3.9,2,5.8h0.2c0.7-1.9,1.3-3.9,1.9-5.8l5.3-14.8h4.3v27.8h-3.3v-15.3
			c0-2.4,0.3-5.8,0.5-8.2h-0.2l-2.2,6.3l-5.2,14.4H578l-5.3-14.4l-2.2-6.3h-0.2c0.2,2.5,0.4,5.8,0.4,8.2v15.3h-3.2V272.3z"/>
		<path class="st5" d="M600.5,272.3h7.9c6.2,0,10.4,2.1,10.4,8.2c0,5.8-4.2,8.6-10.3,8.6h-4.6v11h-3.5V272.3z M608.2,286.2
			c4.9,0,7.2-1.8,7.2-5.7c0-4-2.5-5.3-7.3-5.3h-4v11H608.2z"/>
	</g>
</g>
<g>
	<g class="st25">
		<path class="st5" d="M510.3,318.2H523v2.4h-9.8v6.9h8.3v2.4h-8.3v8h10.2v2.4h-13V318.2z"/>
		<path class="st5" d="M530.2,318.2h2.9l7.9,13.8l2.4,4.5h0.1c-0.1-2.2-0.4-4.7-0.4-7v-11.3h2.6v21.9H543l-7.9-13.8l-2.4-4.5h-0.1
			c0.1,2.2,0.4,4.6,0.4,6.8v11.5h-2.6V318.2z"/>
		<path class="st5" d="M552.9,329.2c0-7.1,4.2-11.4,10.1-11.4c3,0,5,1.4,6.3,2.7l-1.5,1.8c-1.1-1.1-2.5-2.1-4.7-2.1
			c-4.4,0-7.3,3.4-7.3,8.9c0,5.5,2.6,9,7.3,9c1.6,0,3.1-0.5,3.9-1.3v-5.7h-4.6v-2.3h7.2v9.2c-1.4,1.5-3.8,2.5-6.8,2.5
			C557,340.5,552.9,336.3,552.9,329.2z"/>
		<path class="st5" d="M577.1,318.2h2.8v21.9h-2.8V318.2z"/>
		<path class="st5" d="M588.2,318.2h2.9L599,332l2.4,4.5h0.1c-0.1-2.2-0.4-4.7-0.4-7v-11.3h2.6v21.9H601l-7.9-13.8l-2.4-4.5h-0.1
			c0.1,2.2,0.4,4.6,0.4,6.8v11.5h-2.6V318.2z"/>
		<path class="st5" d="M612.2,318.2h12.6v2.4H615v6.9h8.3v2.4H615v8h10.2v2.4h-13V318.2z"/>
	</g>
</g>
<g>
	<g class="st25">
		<path class="st5" d="M507.6,364.7l2.2-0.2l0.5-2.7c0.7-3.3,2.4-5.3,5.1-5.3c1.2,0,2.1,0.3,2.9,0.8l-0.9,1.8
			c-0.5-0.3-1-0.6-1.8-0.6c-1.5,0-2.4,1.2-2.8,3.1l-0.6,2.8h3.3l-0.4,2.1h-3.3l-2.8,14.2h-2.6l2.8-14.2h-2.1L507.6,364.7z"/>
		<path class="st5" d="M526.7,364.1c3.7,0,5,2.5,5,5.9c0,1.3-0.4,2.6-0.6,3.2h-10.5c-0.6,4.2,1.6,6,4.4,6c1.3,0,2.6-0.7,3.6-1.4
			l1,1.7c-1.3,0.9-3.1,1.7-5.2,1.7c-3.8,0-6.4-2.4-6.4-6.8C518,368.3,522.5,364.1,526.7,364.1z M529.4,371.4c0.1-0.5,0.2-1,0.2-1.7
			c0-1.9-0.8-3.6-3.1-3.6c-2.4,0-4.7,2.1-5.5,5.3H529.4z"/>
		<path class="st5" d="M536.5,375.3c0-6.2,4.3-11.1,8.8-11.1c1.7,0,3.2,1,3.9,2.5h0.1l0.6-2h2.1l-3.3,16.2h-2.1l0.3-2.4h-0.1
			c-1.6,1.7-3.6,2.8-5.6,2.8C538.3,381.1,536.5,379.1,536.5,375.3z M547.2,375.9l1.5-7.2c-0.9-1.7-2.1-2.4-3.3-2.4
			c-3.2,0-6.2,4.1-6.2,8.6c0,2.8,1.1,4.1,3,4.1C543.8,379,545.6,378,547.2,375.9z"/>
		<path class="st5" d="M557.7,377.5c0-0.6,0.1-1.2,0.2-1.8l1.9-9.2h-2.4l0.4-1.9l2.5-0.2l1.2-4.5h2.2l-0.9,4.5h4.1l-0.4,2.1h-4.2
			l-1.9,9.3c-0.1,0.4-0.1,0.8-0.1,1.2c0,1.3,0.5,2,2.1,2c0.7,0,1.2-0.3,1.7-0.5l0.6,1.8c-0.7,0.3-1.8,0.7-3.1,0.7
			C558.8,381.1,557.7,379.5,557.7,377.5z"/>
		<path class="st5" d="M581.9,380.7h-2.1l0.3-2.5h-0.1c-1.8,1.6-3.6,2.9-5.6,2.9c-2.7,0-3.9-1.6-3.9-4c0-0.8,0.1-1.3,0.3-2.2
			l2.1-10.3h2.6l-2,10c-0.2,0.9-0.3,1.3-0.3,1.9c0,1.7,0.7,2.5,2.4,2.5c1.2,0,2.8-0.9,4.8-2.9l2.3-11.5h2.6L581.9,380.7z"/>
		<path class="st5" d="M592.8,364.5h2.1l-0.4,3.1h0.1c1.3-2,3-3.5,5-3.5c0.6,0,1.1,0.1,1.5,0.3l-0.9,2.3c-0.3-0.2-0.8-0.3-1.4-0.3
			c-1.6,0-3.4,1.4-4.8,4.1l-2,10.2h-2.6L592.8,364.5z"/>
		<path class="st5" d="M612.2,364.1c3.7,0,5,2.5,5,5.9c0,1.3-0.4,2.6-0.6,3.2h-10.5c-0.6,4.2,1.6,6,4.4,6c1.3,0,2.6-0.7,3.6-1.4
			l1,1.7c-1.3,0.9-3.1,1.7-5.2,1.7c-3.8,0-6.4-2.4-6.4-6.8C603.6,368.3,608,364.1,612.2,364.1z M614.9,371.4c0.1-0.5,0.2-1,0.2-1.7
			c0-1.9-0.8-3.6-3.1-3.6c-2.4,0-4.7,2.1-5.5,5.3H614.9z"/>
		<path class="st5" d="M620.6,378.1l1.6-1.3c1,1.4,2.5,2.4,4.2,2.4c1.8,0,3.4-1.2,3.4-2.7c0-1.2-0.7-1.9-3-3.1
			c-2.5-1.4-3.7-2.6-3.7-4.4c0-2.9,2.5-4.8,5.6-4.8c2,0,3.6,0.9,4.8,2.2l-1.5,1.4c-0.8-0.9-1.9-1.6-3.4-1.6c-1.7,0-3.1,1.2-3.1,2.6
			c0,1.4,1.4,2.1,2.9,2.9c2.9,1.6,3.8,2.8,3.8,4.6c0,3-2.6,5-6.1,5C624,381.1,621.7,379.8,620.6,378.1z"/>
	</g>
</g>
<path class="st0" d="M130.2,23.8h228c5.5,0,10,4.5,10,10v60.9c0,5.5-4.5,10-10,10h-228c-5.5,0-10-4.5-10-10V33.8
	C120.2,28.3,124.7,23.8,130.2,23.8z"/>
<circle class="st1" cx="120.2" cy="23.8" r="22.8"/>
<text transform="matrix(1 0 0 1 111.38 35.7)" class="st2 st3 st4">1</text>
<text transform="matrix(1 0 0 1 145.2 74.72)" class="st5 st6 st7">D</text>
<text transform="matrix(1 0 0 1 164.87 74.72)" class="st5 st6 st7">r</text>
<text transform="matrix(1 0 0 1 174.44 74.72)" class="st5 st6 st7">ag </text>
<text transform="matrix(1 0 0 1 215.01 74.72)" class="st5 st6 st7">y</text>
<text transform="matrix(1 0 0 1 228.99 74.72)" class="st5 st6 st7">our code</text>
<path class="st0" d="M591.3,23.8h228c5.5,0,10,4.5,10,10v128.4c0,5.5-4.5,10-10,10h-228c-5.5,0-10-4.5-10-10V33.8
	C581.3,28.3,585.8,23.8,591.3,23.8z"/>
<circle class="st1" cx="581.2" cy="23.8" r="22.8"/>
<text transform="matrix(1 0 0 1 572.37 35.7)" class="st2 st3 st4">2</text>
<text transform="matrix(1 0 0 1 596.8015 72)" class="st5 st6 st7">We’ll compute its</text>
<text transform="matrix(1 0 0 1 596.8015 108)" class="st5 st6 st7">behavior on</text>
<text transform="matrix(1 0 0 1 596.8015 144)" class="st5 st6 st7">1000 time series</text>
<text transform="matrix(1 0 0 1 582.37 827.98)" class="st2 st3 st4">3</text>
<polygon class="st22" points="388.8,226.1 356.9,226.1 367.5,409.4 388.8,409.4 "/>
</svg>
